<svg xmlns="http://www.w3.org/2000/svg" viewBox="0 0 112.17 37.01"><defs><style>.cls-1{fill:#b50d30;}.cls-2{fill:#1f1b1c;}.cls-3{fill:#fff;}</style></defs><g id="Capa_2" data-name="Capa 2"><g id="Capa_1-2" data-name="Capa 1"><rect class="cls-1" width="37.39" height="37.01"/><rect class="cls-2" x="37.39" width="37.39" height="37.01"/><rect class="cls-1" x="74.78" width="37.39" height="37.01"/><polygon class="cls-3" points="22.5 22.85 21.45 23.91 15.94 23.91 14.7 22.67 14.7 8.18 8.25 8.18 8.25 25.16 12.32 28.91 25.54 28.91 28.95 25.16 28.95 8.18 22.5 8.18 22.5 22.85"/><polygon class="cls-3" points="45.68 13.25 52.92 13.25 52.92 28.87 59.37 28.87 59.37 13.25 66.61 13.25 66.61 8.24 45.68 8.24 45.68 13.25"/><path class="cls-3" d="M100.07,8.23H89.33V8.18H82.88V28.87h6.45V23.31h10.73l0,0L103.7,20V11.4Zm-10.74,5H96l1.24,1.24V17.1L96,18.31h-6.7Z"/></g></g></svg>